<svg width="1900" height="700" viewBox="0 0 1900 700" fill="none" xmlns="http://www.w3.org/2000/svg">
<rect width="1900" height="700" fill="#F6AC2D"></rect>
<path d="M391.545 112.392C270.57 112.328 172.169 210.728 172.104 331.639C172.104 350.355 174.484 368.556 178.922 385.985C180.723 393.188 182.974 400.263 185.482 407.144C186.768 410.682 188.183 414.155 189.662 417.628C223.106 495.963 300.926 551.016 391.352 551.08C481.906 551.144 559.855 495.963 593.299 417.563C594.778 414.155 596.193 410.617 597.479 407.08C599.987 400.198 602.174 393.124 604.039 385.921C608.477 368.62 610.792 350.484 610.792 331.832C610.856 210.857 512.52 112.456 391.545 112.392ZM590.405 384.184C588.539 391.387 586.224 398.462 583.587 405.344C582.237 408.881 580.822 412.354 579.278 415.763C547.057 487.409 474.96 537.445 391.48 537.381C308.065 537.381 236.097 487.409 203.876 415.891C202.332 412.483 200.853 408.945 199.502 405.408C196.865 398.526 194.55 391.452 192.621 384.313C188.183 367.527 185.803 349.84 185.803 331.639C185.868 218.189 278.159 125.962 391.609 126.027C505.059 126.091 597.286 218.382 597.222 331.832C597.158 349.905 594.842 367.463 590.405 384.184Z" fill="#62BAB7"></path>
<path d="M407.688 183.202L269.091 423.03L362.668 423.094V478.726H384.406L384.471 351.126H362.732V401.356H306.843L354.05 319.419L461.133 319.484L482.164 355.95H422.931V377.688H480.363L418.557 467.921L436.501 480.205L513.871 367.269L407.688 183.202ZM366.656 297.681L407.688 226.742L448.592 297.745L366.656 297.681Z" fill="white"></path>
<path d="M402.992 566.387C531.716 566.387 636.067 462.035 636.067 333.311C636.067 204.588 531.716 100.236 402.992 100.236C274.269 100.236 169.917 204.588 169.917 333.311C169.917 462.035 274.269 566.387 402.992 566.387Z" stroke="white" stroke-width="3" stroke-miterlimit="10"></path>
<path d="M191.401 480.398C204.263 500.271 219.956 518.408 238.35 533.393C255.522 547.349 274.623 558.476 295.139 566.708C315.334 574.747 336.558 579.7 358.103 582.079C379.648 584.459 401.451 584.137 422.932 581.565C444.606 578.928 466.023 574.168 486.796 567.287C509.756 559.698 533.36 550.244 552.654 535.323C563.652 526.833 572.72 516.479 578.508 503.744C584.104 491.332 587.384 478.019 593.751 465.927C607.578 439.623 619.283 412.225 627.709 383.669C636.262 354.857 641.665 324.886 641.793 294.787C641.922 273.563 637.227 252.275 631.246 232.016C624.814 210.342 616.389 188.797 604.491 169.503C599.668 161.721 594.265 154.067 587.512 147.765C584.039 144.549 580.18 141.912 576.257 139.339C570.469 135.545 564.552 131.879 558.571 128.47C533.874 114.385 506.991 102.616 479.014 96.9563C463.643 93.8049 447.886 92.0684 432.258 90.5248C416.179 88.917 400.036 88.0166 383.893 88.1452C354.244 88.4668 324.467 92.5186 296.49 102.616C271.15 111.813 247.225 125.833 228.639 145.578C209.087 166.351 196.224 192.141 185.162 218.124C173.2 246.23 161.109 274.85 154.806 304.756C151.912 318.648 150.754 332.668 150.432 346.817C150.175 357.429 150.304 368.041 151.333 378.589C153.519 401.292 160.272 422.837 170.177 443.289C176.415 456.152 183.683 468.436 191.401 480.398C193.716 484 199.504 480.655 197.189 477.054C183.233 455.38 170.498 432.484 163.488 407.594C157.829 387.593 156.607 366.948 157.185 346.239C157.571 332.411 158.665 318.841 161.623 305.27C164.839 290.414 169.534 275.943 174.872 261.73C180.081 247.838 185.677 234.074 191.529 220.504C196.996 207.77 202.784 195.229 209.73 183.202C216.612 171.239 224.587 159.856 234.105 149.823C243.109 140.368 253.4 132.265 264.526 125.448C287.357 111.427 313.276 102.937 339.645 98.6284C370.58 93.5476 402.287 94.3194 433.351 97.4708C448.529 99.0143 463.964 100.686 478.885 103.902C492.391 106.796 505.576 111.17 518.374 116.379C531.43 121.717 544.1 128.02 556.384 135.03C562.237 138.375 568.025 141.976 573.685 145.707C577.286 148.086 580.695 150.466 583.782 153.489C590.213 159.727 595.359 167.187 599.925 174.841C605.392 183.974 610.087 193.685 614.138 203.525C622.692 224.17 629.188 245.973 632.854 268.032C636.841 292.15 635.169 316.783 631.053 340.836C626.101 369.778 617.29 398.076 605.906 425.088C600.311 438.401 593.815 451.2 587.319 464.062C581.274 476.025 578.122 489.081 572.527 501.236C561.079 525.933 536.704 540.018 512.715 550.436C493.292 558.862 473.033 565.422 452.388 569.924C431.743 574.49 410.648 576.934 389.553 577.063C368.522 577.191 347.491 574.94 327.039 569.924C306.652 564.907 287.036 557.125 268.899 546.513C249.798 535.323 232.69 521.109 218.027 504.58C210.438 495.962 203.556 486.765 197.318 477.182C194.809 473.452 189.021 476.797 191.401 480.398Z" fill="white"></path>
<path d="M377.075 549.15C505.799 549.15 610.15 444.799 610.15 316.075C610.15 187.351 505.799 83 377.075 83C248.351 83 144 187.351 144 316.075C144 444.799 248.351 549.15 377.075 549.15Z" stroke="white" stroke-width="3" stroke-miterlimit="10"></path>
<path d="M415.921 557.768C532.746 557.768 627.451 463.063 627.451 346.239C627.451 229.414 532.746 134.709 415.921 134.709C299.097 134.709 204.392 229.414 204.392 346.239C204.392 463.063 299.097 557.768 415.921 557.768Z" stroke="white" stroke-width="6" stroke-miterlimit="10"></path>
<path d="M389.545 132.6C517.302 132.6 620.869 236.168 620.869 363.925C620.869 491.682 517.302 595.25 389.545 595.25C261.788 595.25 158.22 491.682 158.22 363.925C158.22 236.168 261.788 132.6 389.545 132.6Z" stroke="white" stroke-width="3.5" stroke-miterlimit="10"></path>
<path d="M756.738 368L808.902 254.6H817.164L869.328 368H860.418L811.17 259.784H814.734L765.648 368H756.738ZM775.854 336.086L778.608 329.12H846.486L849.24 336.086H775.854ZM922.937 368V262.052H882.113V254.6H972.023V262.052H931.199V368H922.937ZM1056.05 368.81C1047.63 368.81 1039.8 367.406 1032.56 364.598C1025.44 361.682 1019.17 357.632 1013.77 352.448C1008.48 347.156 1004.38 341.054 1001.46 334.142C998.544 327.122 997.086 319.508 997.086 311.3C997.086 303.092 998.544 295.532 1001.46 288.62C1004.38 281.6 1008.48 275.498 1013.77 270.314C1019.17 265.022 1025.44 260.972 1032.56 258.164C1039.8 255.248 1047.63 253.79 1056.05 253.79C1064.48 253.79 1072.25 255.248 1079.38 258.164C1086.62 260.972 1092.88 264.968 1098.17 270.152C1103.47 275.336 1107.57 281.438 1110.49 288.458C1113.51 295.37 1115.02 302.984 1115.02 311.3C1115.02 319.616 1113.51 327.284 1110.49 334.304C1107.57 341.216 1103.47 347.264 1098.17 352.448C1092.88 357.632 1086.62 361.682 1079.38 364.598C1072.25 367.406 1064.48 368.81 1056.05 368.81ZM1056.05 361.196C1063.29 361.196 1069.99 359.954 1076.14 357.47C1082.3 354.986 1087.64 351.476 1092.18 346.94C1096.72 342.404 1100.23 337.112 1102.71 331.064C1105.3 325.016 1106.6 318.428 1106.6 311.3C1106.6 304.064 1105.3 297.476 1102.71 291.536C1100.23 285.488 1096.72 280.196 1092.18 275.66C1087.64 271.124 1082.3 267.614 1076.14 265.13C1069.99 262.646 1063.29 261.404 1056.05 261.404C1048.82 261.404 1042.12 262.646 1035.97 265.13C1029.81 267.614 1024.41 271.124 1019.77 275.66C1015.23 280.196 1011.67 285.488 1009.07 291.536C1006.59 297.476 1005.35 304.064 1005.35 311.3C1005.35 318.428 1006.59 325.016 1009.07 331.064C1011.67 337.112 1015.23 342.404 1019.77 346.94C1024.41 351.476 1029.81 354.986 1035.97 357.47C1042.12 359.954 1048.82 361.196 1056.05 361.196ZM1160.69 368V254.6H1167.65L1220.3 345.482H1216.58L1269.07 254.6H1275.87L1276.03 368H1267.93L1267.77 267.074H1270.04L1220.3 352.934H1216.25L1166.36 267.074H1168.79V368H1160.69ZM1332.58 368V254.6H1340.84V368H1332.58ZM1445.32 368.81C1436.89 368.81 1429.06 367.406 1421.83 364.598C1414.7 361.682 1408.49 357.632 1403.2 352.448C1397.91 347.264 1393.8 341.216 1390.89 334.304C1387.97 327.284 1386.51 319.616 1386.51 311.3C1386.51 302.984 1387.97 295.37 1390.89 288.458C1393.8 281.438 1397.91 275.336 1403.2 270.152C1408.6 264.968 1414.86 260.972 1421.99 258.164C1429.12 255.248 1436.89 253.79 1445.32 253.79C1453.31 253.79 1460.76 255.086 1467.67 257.678C1474.69 260.27 1480.69 264.212 1485.66 269.504L1480.47 274.85C1475.61 270.098 1470.21 266.696 1464.27 264.644C1458.44 262.484 1452.23 261.404 1445.64 261.404C1438.41 261.404 1431.66 262.646 1425.39 265.13C1419.24 267.614 1413.84 271.124 1409.19 275.66C1404.66 280.196 1401.09 285.488 1398.5 291.536C1396.02 297.584 1394.77 304.172 1394.77 311.3C1394.77 318.428 1396.02 325.016 1398.5 331.064C1401.09 337.112 1404.66 342.404 1409.19 346.94C1413.84 351.476 1419.24 354.986 1425.39 357.47C1431.66 359.954 1438.41 361.196 1445.64 361.196C1452.23 361.196 1458.44 360.17 1464.27 358.118C1470.21 355.958 1475.61 352.448 1480.47 347.588L1485.66 352.934C1480.69 358.226 1474.69 362.222 1467.67 364.922C1460.76 367.514 1453.31 368.81 1445.32 368.81ZM1512 336.572V330.578L1573.56 254.6H1582.8L1521.4 330.578L1516.86 329.282H1608.56V336.572H1512ZM1576.64 368V336.572L1576.8 329.282V301.58H1584.74V368H1576.64ZM1648.66 368L1698.55 258.488L1701.47 262.052H1629.06L1633.27 258.164V283.76H1625.17V254.6H1706.49V260.432L1657.73 368H1648.66Z" fill="white"></path>
<path d="M1069.29 500V414.6H1075.52V494.388H1124.68V500H1069.29ZM1139.2 500L1178.48 414.6H1184.7L1223.99 500H1217.28L1180.19 418.504H1182.87L1145.91 500H1139.2ZM1153.59 475.966L1155.67 470.72H1206.78L1208.86 475.966H1153.59ZM1252.3 500V414.6H1287.92C1297.11 414.6 1304.31 416.471 1309.52 420.212C1314.72 423.953 1317.33 429.362 1317.33 436.438C1317.33 441.074 1316.23 444.978 1314.03 448.15C1311.84 451.322 1308.79 453.721 1304.88 455.348C1301.06 456.893 1296.75 457.666 1291.95 457.666L1294.15 455.226C1300 455.226 1305 456.08 1309.15 457.788C1313.3 459.496 1316.43 461.977 1318.55 465.23C1320.74 468.483 1321.84 472.55 1321.84 477.43C1321.84 484.587 1319.24 490.159 1314.03 494.144C1308.83 498.048 1300.94 500 1290.36 500H1252.3ZM1258.52 494.632H1290.36C1298.58 494.632 1304.84 493.249 1309.15 490.484C1313.46 487.637 1315.62 483.123 1315.62 476.942C1315.62 470.842 1313.46 466.409 1309.15 463.644C1304.84 460.797 1298.58 459.374 1290.36 459.374H1257.79V454.006H1287.68C1295.08 454.006 1300.82 452.583 1304.88 449.736C1308.95 446.889 1310.98 442.619 1310.98 436.926C1310.98 431.314 1308.95 427.085 1304.88 424.238C1300.82 421.391 1295.08 419.968 1287.68 419.968H1258.52V494.632ZM1379.3 500.61C1372.95 500.61 1366.93 499.553 1361.24 497.438C1355.63 495.242 1351.28 492.436 1348.19 489.02L1350.99 484.384C1353.92 487.393 1357.91 489.955 1362.95 492.07C1368.07 494.103 1373.48 495.12 1379.17 495.12C1384.87 495.12 1389.5 494.388 1393.08 492.924C1396.74 491.379 1399.43 489.345 1401.13 486.824C1402.92 484.303 1403.82 481.497 1403.82 478.406C1403.82 474.746 1402.84 471.818 1400.89 469.622C1398.94 467.426 1396.38 465.677 1393.2 464.376C1390.03 463.075 1386.58 461.977 1382.83 461.082C1379.09 460.187 1375.31 459.252 1371.49 458.276C1367.67 457.219 1364.17 455.877 1361 454.25C1357.82 452.623 1355.26 450.427 1353.31 447.662C1351.44 444.815 1350.5 441.155 1350.5 436.682C1350.5 432.615 1351.56 428.874 1353.68 425.458C1355.79 422.042 1359.08 419.277 1363.56 417.162C1368.03 415.047 1373.77 413.99 1380.76 413.99C1385.48 413.99 1390.11 414.681 1394.67 416.064C1399.3 417.447 1403.25 419.317 1406.5 421.676L1404.18 426.678C1400.61 424.238 1396.74 422.449 1392.59 421.31C1388.53 420.09 1384.58 419.48 1380.76 419.48C1375.31 419.48 1370.8 420.253 1367.22 421.798C1363.64 423.343 1361 425.417 1359.29 428.02C1357.58 430.541 1356.73 433.388 1356.73 436.56C1356.73 440.22 1357.66 443.148 1359.53 445.344C1361.48 447.54 1364.05 449.289 1367.22 450.59C1370.39 451.891 1373.89 452.989 1377.71 453.884C1381.53 454.779 1385.31 455.755 1389.06 456.812C1392.8 457.788 1396.25 459.089 1399.43 460.716C1402.6 462.343 1405.16 464.539 1407.11 467.304C1409.06 470.069 1410.04 473.648 1410.04 478.04C1410.04 482.025 1408.94 485.767 1406.75 489.264C1404.55 492.68 1401.17 495.445 1396.62 497.56C1392.15 499.593 1386.37 500.61 1379.3 500.61Z" fill="white"></path>
</svg>