<svg width="1000" height="1000" viewBox="0 0 1000 1000" fill="none" xmlns="http://www.w3.org/2000/svg">
<g clip-path="url(#clip0_2212_23)">
<path d="M1000.4 -2H0V997.7H1000.4V-2Z" fill="#F6AC2D"></path>
<path d="M497.95 149.231C311.78 149.132 160.349 300.562 160.25 486.634C160.25 515.435 163.913 543.445 170.742 570.267C173.513 581.352 176.977 592.239 180.837 602.829C182.817 608.273 184.994 613.617 187.27 618.962C238.737 739.512 358.495 824.234 497.653 824.333C637.008 824.432 756.964 739.512 808.431 618.863C810.707 613.617 812.885 608.174 814.864 602.73C818.724 592.14 822.089 581.253 824.959 570.168C831.789 543.544 835.352 515.633 835.352 486.931C835.451 300.76 684.12 149.33 497.95 149.231ZM803.977 567.495C801.107 578.58 797.544 589.468 793.486 600.058C791.407 605.501 789.23 610.846 786.854 616.092C737.269 726.349 626.319 803.35 497.851 803.251C369.481 803.251 258.73 726.349 209.144 616.289C206.768 611.044 204.492 605.6 202.413 600.157C198.355 589.567 194.792 578.679 191.823 567.693C184.994 541.861 181.332 514.643 181.332 486.634C181.431 312.043 323.459 170.115 498.049 170.214C672.639 170.313 814.567 312.34 814.468 486.931C814.369 514.742 810.806 541.762 803.977 567.495Z" fill="#62BAB7"></path>
<path d="M522.792 258.201L309.503 627.275L453.51 627.374V712.987H486.964L487.063 516.622H453.609V593.921H367.601L440.248 467.828L605.04 467.927L637.404 524.046H546.249V557.499H634.633L539.519 696.359L567.133 715.263L686.198 541.465L522.792 258.201ZM459.647 434.375L522.792 325.207L585.74 434.474L459.647 434.375Z" fill="white"></path>
<path d="M515.566 847.889C713.66 847.889 874.247 687.301 874.247 489.207C874.247 291.112 713.66 130.525 515.566 130.525C317.472 130.525 156.885 291.112 156.885 489.207C156.885 687.301 317.472 847.889 515.566 847.889Z" stroke="white" stroke-width="3" stroke-miterlimit="10"></path>
<path d="M189.945 715.56C209.74 746.143 233.889 774.054 262.196 797.115C288.622 818.592 318.017 835.715 349.59 848.383C380.668 860.755 413.329 868.376 446.485 872.038C479.642 875.7 513.194 875.205 546.251 871.246C579.605 867.188 612.564 859.864 644.532 849.274C679.866 837.595 716.189 823.046 745.882 800.084C762.806 787.019 776.762 771.085 785.669 751.488C794.28 732.386 799.328 711.898 809.126 693.291C830.405 652.811 848.419 610.648 861.384 566.703C874.548 522.363 882.862 476.241 883.06 429.921C883.258 397.26 876.032 364.5 866.828 333.323C856.93 299.969 843.965 266.812 825.655 237.12C818.232 225.144 809.918 213.366 799.526 203.667C794.181 198.718 788.242 194.66 782.205 190.701C773.297 184.862 764.192 179.22 754.987 173.975C716.981 152.299 675.61 134.187 632.556 125.477C608.902 120.628 584.653 117.955 560.602 115.58C535.859 113.106 511.016 111.72 486.174 111.918C440.547 112.413 394.722 118.648 351.668 134.187C312.673 148.34 275.854 169.917 247.251 200.302C217.163 232.27 197.368 271.959 180.345 311.944C161.935 355.196 143.328 399.239 133.629 445.262C129.175 466.641 127.394 488.217 126.899 509.991C126.503 526.322 126.701 542.653 128.284 558.884C131.649 593.822 142.042 626.979 157.284 658.452C166.884 678.247 178.068 697.151 189.945 715.56C193.508 721.103 202.416 715.956 198.853 710.414C177.375 677.059 157.779 641.825 146.99 603.522C138.281 572.741 136.4 540.97 137.291 509.1C137.885 487.821 139.567 466.938 144.12 446.054C149.069 423.191 156.294 400.922 164.509 379.049C172.526 357.67 181.136 336.49 190.143 315.606C198.556 296.01 207.463 276.71 218.153 258.201C228.743 239.792 241.016 222.274 255.664 206.834C269.52 192.285 285.356 179.814 302.478 169.323C337.614 147.747 377.501 134.682 418.08 128.051C465.686 120.232 514.481 121.419 562.285 126.269C585.643 128.645 609.397 131.218 632.358 136.167C653.143 140.62 673.433 147.351 693.129 155.368C713.22 163.582 732.718 173.282 751.622 184.07C760.629 189.217 769.536 194.759 778.246 200.5C783.789 204.162 789.034 207.824 793.785 212.476C803.682 222.076 811.6 233.557 818.628 245.335C827.04 259.389 834.265 274.334 840.501 289.477C853.664 321.248 863.661 354.8 869.302 388.748C875.439 425.863 872.865 463.77 866.531 500.787C858.91 545.325 845.35 588.873 827.832 630.443C819.221 650.93 809.225 670.626 799.229 690.421C789.925 708.83 785.075 728.922 776.465 747.628C758.847 785.634 721.336 807.309 684.419 823.343C654.529 836.308 623.352 846.404 591.581 853.332C559.811 860.359 527.347 864.12 494.884 864.318C462.519 864.516 430.155 861.052 398.681 853.332C367.306 845.612 337.119 833.636 309.209 817.305C279.813 800.084 253.486 778.211 230.92 752.774C219.241 739.512 208.651 725.359 199.051 710.611C195.191 704.871 186.283 710.018 189.945 715.56Z" fill="white"></path>
<path d="M475.681 821.363C673.776 821.363 834.363 660.776 834.363 462.682C834.363 264.587 673.776 104 475.681 104C277.587 104 117 264.587 117 462.682C117 660.776 277.587 821.363 475.681 821.363Z" stroke="white" stroke-width="3" stroke-miterlimit="10"></path>
<path d="M535.462 834.626C715.245 834.626 860.987 688.883 860.987 509.1C860.987 329.318 715.245 183.575 535.462 183.575C355.679 183.575 209.937 329.318 209.937 509.1C209.937 688.883 355.679 834.626 535.462 834.626Z" stroke="white" stroke-width="6" stroke-miterlimit="10"></path>
<path d="M494.871 179.387C691.999 179.387 851.803 339.19 851.803 536.318C851.803 733.446 691.999 893.25 494.871 893.25C297.744 893.25 137.94 733.446 137.94 536.318C137.94 339.19 297.744 179.387 494.871 179.387Z" stroke="white" stroke-width="3.5" stroke-miterlimit="10"></path>
</g>
<defs>
<clipPath id="clip0_2212_23">
<rect width="1000" height="1000" fill="white"></rect>
</clipPath>
</defs>
</svg>